<svg xmlns="http://www.w3.org/2000/svg" width="146.983" height="64.145"><g fill="#262626" data-name="Group 86"><g data-name="Group 85"><path d="m56.488 46.234-4.969-5.455h-7.345v-3.02h8.186c2.458 0 3.754-1.4 3.754-3.943s-1.4-3.781-3.754-3.781h-10.7v16.2h-3.4V26.601h14.1c4.483 0 7.13 2.782 7.13 7.157 0 3.24-1.513 5.536-4.051 6.508l5.914 5.968Z" data-name="Path 114"/><path d="M63.674 46.234V26.601h17.527v3.43H67.074v12.774h14.151v3.43Zm5.914-8.534v-2.89h10.883v2.89Z" data-name="Path 115"/><path d="M84.681 46.234V26.601h14.367c3.835 0 6.373 1.728 6.373 5.077 0 2.485-1.269 3.727-2.727 4.186a4.41 4.41 0 0 1 3.079 4.429c0 3.592-2.485 5.941-6.32 5.941Zm5.914-8.534v-2.89h8.48c1.945 0 2.863-.675 2.863-2.377 0-2.079-1.647-2.4-4.186-2.4h-9.641v12.8h9.938c2.458 0 4.24-.675 4.24-2.593 0-1.62-1.053-2.539-2.971-2.539Z" data-name="Path 116"/><path d="M109.31 46.234V26.601h17.531v3.43h-14.128v12.774h14.151v3.43Zm5.914-8.534v-2.89h10.883v2.89Z" data-name="Path 117"/><path d="M130.347 46.234V26.601h3.43v16.2h13.206v3.43Z" data-name="Path 118"/></g><path d="M30.582 26.607H17.434L22.195 0 0 37.533h13.152l-4.76 26.612Zm-13.121 2.817h8.185l-11.73 19.847Zm-4.345 5.3H4.939l11.732-19.846Z" data-name="Path 119"/></g></svg>