<svg xmlns="http://www.w3.org/2000/svg" id="Layer_2" viewBox="0 0 2503.61 679.35"><defs><linearGradient id="linear-gradient" x1="1117.8" x2="1447.42" y1="204.85" y2="431.99" gradientUnits="userSpaceOnUse"><stop offset="0" stop-color="#0ff7a4"/><stop offset=".52" stop-color="#07f3d0"/><stop offset="1" stop-color="#00f0fc"/></linearGradient><style>.cls-2{fill:#262626}</style></defs><g id="Layer_1-2"><path d="M1475.42 281.8h-139.3L1386.54 0l-235.06 397.55h139.3l-50.42 281.8 235.07-397.55Zm-138.96 29.83h86.68l-124.28 210.19zm-46.02 56.09h-86.65l124.25-210.18z" style="fill:url(#linear-gradient)"/><path d="m193.06 492.17-52.63-57.78H62.64v-32.03h86.66c26.03 0 39.76-14.87 39.76-41.76s-14.87-40.04-39.76-40.04H36.04v171.61H0V284.24h149.3c47.48 0 75.51 29.46 75.51 75.79 0 34.32-16.02 58.63-42.9 68.93l62.64 63.21h-51.48ZM269.13 492.17V284.24h185.63v36.32H305.17v135.29h149.87v36.32zm62.64-90.38v-30.6h115.26v30.6zM491.65 492.17V284.24h152.16c40.61 0 67.5 18.31 67.5 53.77 0 26.32-13.44 39.47-28.89 44.33 18.88 6.01 32.61 22.6 32.61 46.91 0 38.04-26.32 62.92-66.93 62.92zm62.64-90.38v-30.6h89.81c20.59 0 30.32-7.15 30.32-25.17 0-22.02-17.45-25.46-44.33-25.46H527.98v135.57h105.25c26.03 0 44.9-7.15 44.9-27.46 0-17.16-11.15-26.89-31.46-26.89h-92.38ZM752.49 492.17V284.24h185.63v36.32H788.53v135.29H938.4v36.32zm62.64-90.38v-30.6h115.26v30.6zM975.29 492.17V284.24h36.32v171.61h139.86v36.32H975.28ZM1532.44 492.15V284.24h185.6v36.32h-149.57v135.27h149.85v36.32h-185.89Zm62.63-90.37v-30.6h115.25v30.6zM1749.49 492.15V284.24h120.4c58.63 0 101.24 41.47 101.24 101.81s-42.61 106.1-101.24 106.1zm120.4-36.32c37.46 0 64.92-28.88 64.92-68.06s-27.45-67.21-64.92-67.21h-84.36v135.27zM2002.87 492.15V284.24h36.32v207.91zM2143.85 492.15V320.56h-78.93v-36.32h194.18v36.32h-78.93v171.59zM2283.12 492.15v-36.32h155.86c19.45 0 30.31-10.87 30.31-27.17 0-17.73-10.87-26.88-30.31-26.88h-95.52c-39.18 0-63.49-24.88-63.49-59.2s22.59-58.34 64.06-58.34h149.28v36.32h-149.28c-16.59 0-26.31 9.72-26.31 25.45s10.01 25.17 26.02 25.17h95.23c42.04 0 64.63 19.73 64.63 60.06 0 34.89-21.16 60.91-64.63 60.91h-155.86Z" class="cls-2"/></g></svg>