<svg xmlns="http://www.w3.org/2000/svg" width="4144" height="1600" fill="none"><mask id="a" width="433" height="906" x="1932" y="347" maskUnits="userSpaceOnUse" style="mask-type:luminance"><path fill="#fff" d="M2118.03 837.392h-115.55l165.68-280.245zm61.36-74.784h115.57l-165.71 280.252zm185.28-39.779h-185.74l67.23-375.728-313.41 530.07h185.73l-67.23 375.729z"/></mask><g mask="url(#a)"><path fill="url(#b)" d="M2118.03 837.392h-115.55l165.68-280.245zm61.36-74.784h115.57l-165.71 280.252zm185.28-39.779h-185.74l67.23-375.728-313.41 530.07h185.73l-67.23 375.729z"/></g><path fill="#fff" d="m654.855 1003.33-70.172-77.03H480.956v-42.712h115.551c34.704 0 53.008-19.832 53.008-55.68 0-35.844-19.828-53.388-53.008-53.388H445.491v228.81h-48.053V726.088h199.069c63.304 0 100.68 39.28 100.68 101.06 0 45.76-21.358 78.177-57.206 91.907l83.519 84.275zM839.803 882.825V842.02H993.49v40.805zm-83.519 120.505V726.088h247.496v48.432H804.336v180.383h199.834v48.427zM1136.49 882.825V842.02h119.75c27.45 0 40.42-9.533 40.42-33.559 0-29.366-23.26-33.941-59.11-33.941h-136.14v180.764h140.33c34.71 0 59.88-9.533 59.88-36.612 0-22.881-14.88-35.847-41.95-35.847zm-83.52 120.505V726.088h202.88c54.16 0 90 24.407 90 71.693 0 35.087-17.92 52.627-38.51 59.112 25.17 8.01 43.47 30.127 43.47 62.543 0 50.721-35.08 83.894-89.24 83.894zM1484.28 882.825V842.02h153.68v40.805zm-83.52 120.505V726.088h247.49v48.432h-199.44v180.383h199.83v48.427zM1697.83 1003.33V726.088h48.44v228.815h186.48v48.427zM2524.2 882.805v-40.8h153.67v40.8zm-83.51 120.495V726.088h247.47v48.427h-199.41v180.357h199.8v48.428zM2890.63 954.872c49.94 0 86.56-38.512 86.56-90.751 0-52.238-36.62-89.606-86.56-89.606h-112.48v180.357zm-160.54 48.428V726.088h160.54c78.17 0 134.98 55.289 134.98 135.745S2968.8 1003.3 2890.63 1003.3zM3067.93 1003.3V726.088h48.43V1003.3zM3255.91 1003.3V774.515h-105.24v-48.427h258.9v48.427h-105.24V1003.3zM3441.6 1003.3v-48.428h207.81c25.92 0 40.42-14.489 40.42-36.224 0-23.641-14.5-35.843-40.42-35.843h-127.36c-52.24 0-84.65-33.173-84.65-78.93 0-44.614 30.12-77.787 85.41-77.787h199.04v48.427h-199.04c-22.12 0-35.08 12.964-35.08 33.936s13.35 33.554 34.71 33.554h126.97c56.06 0 86.18 26.311 86.18 80.075 0 46.52-28.22 81.22-86.18 81.22z"/><defs><linearGradient id="b" x1="1887.84" x2="2327.33" y1="620.24" y2="923.081" gradientUnits="userSpaceOnUse"><stop stop-color="#6ACA85"/><stop offset="1" stop-color="#75D2E1"/></linearGradient></defs></svg>