<svg xmlns="http://www.w3.org/2000/svg" width="147.796" height="64.5"><defs><linearGradient id="a" x1="-.104" x2=".914" y1=".302" y2=".636" gradientUnits="objectBoundingBox"><stop offset="0" stop-color="#0ff7a4"/><stop offset=".523" stop-color="#07f3d0"/><stop offset="1" stop-color="#00f0fc"/></linearGradient></defs><g data-name="Group 190"><g fill="#fff" data-name="Group 189"><path d="m56.801 46.49-5-5.485h-7.386v-3.041h8.228c2.471 0 3.774-1.412 3.774-3.965s-1.412-3.8-3.774-3.8h-10.75v16.293h-3.42V26.748h14.175c4.508 0 7.169 2.8 7.169 7.2 0 3.258-1.521 5.567-4.073 6.544l5.947 6Z" data-name="Path 203"/><path d="M64.027 46.49V26.748h17.624v3.449h-14.2v12.845H81.68v3.449Zm5.947-8.581v-2.903h10.944v2.9Z" data-name="Path 204"/><path d="M85.15 46.49V26.748h14.447c3.856 0 6.409 1.738 6.409 5.1 0 2.5-1.276 3.747-2.742 4.209a4.43 4.43 0 0 1 3.1 4.454c0 3.612-2.5 5.974-6.355 5.974Zm5.947-8.581v-2.903h8.527c1.955 0 2.879-.679 2.879-2.39 0-2.091-1.657-2.417-4.209-2.417H88.6v12.872h9.993c2.471 0 4.263-.679 4.263-2.607 0-1.629-1.059-2.553-2.987-2.553Z" data-name="Path 205"/><path d="M109.915 46.49V26.748h17.624v3.449h-14.2v12.845h14.23v3.449Zm5.947-8.581v-2.903h10.944v2.9Z" data-name="Path 206"/><path d="M131.069 46.49V26.748h3.449v16.293h13.279v3.449Z" data-name="Path 207"/></g><path fill="url(#a)" d="M109.574 119.321H96.349l4.787-26.754-22.318 37.745h13.225l-4.787 26.755Zm-13.194 2.833h8.23l-11.8 19.956Zm-4.369 5.325h-8.227l11.8-19.956Z" data-name="Path 208" transform="translate(-78.818 -92.567)"/></g></svg>