<svg xmlns="http://www.w3.org/2000/svg" width="4143.2" height="1600"><defs><linearGradient id="b" x1="0" x2="1" y1="0" y2="0" gradientTransform="scale(4002.95 -4002.95)rotate(34.57 4.723 4.78)" gradientUnits="userSpaceOnUse" spreadMethod="pad"><stop offset="0" style="stop-opacity:1;stop-color:#6aca85"/><stop offset="1" style="stop-opacity:1;stop-color:#75d2e1"/></linearGradient><clipPath id="a" clipPathUnits="userSpaceOnUse"><path d="M15923.4 5719.56h-866.6l1242.6 2101.84zm460.2 560.88h866.8l-1242.8-2101.92Zm1389.6 298.34h-1393l504.2 2817.96-2350.6-3975.52h1392.9l-504.2-2817.96z"/></clipPath></defs><g clip-path="url(#a)" transform="matrix(.13333 0 0 -.13333 0 1600)"><path d="M15923.4 5719.56h-866.6l1242.6 2101.84zm460.2 560.88h866.8l-1242.8-2101.92Zm1389.6 298.34h-1393l504.2 2817.96-2350.6-3975.52h1392.9l-504.2-2817.96z" style="fill:url(#b);fill-opacity:1;fill-rule:nonzero;stroke:none"/></g><path d="m4949.59 4474.99-526.28 577.76h-777.95v320.34h866.63c260.28 0 397.56 148.74 397.56 417.6 0 268.83-148.72 400.41-397.56 400.41H3379.37V4474.99h-360.4v2079.35h1493.02c474.78 0 755.1-294.6 755.1-757.95 0-343.2-160.18-586.33-429.04-689.3l626.39-632.1zM6336.71 5378.81v306.04h1152.65v-306.04Zm-626.39-903.82v2079.35h1856.25V6191.1H6070.71V4838.23h1498.73v-363.24zM8561.87 5378.81v306.04h898.09c205.94 0 303.19 71.5 303.19 251.69 0 220.25-174.48 254.56-443.34 254.56H8298.74V4835.37h1052.54c260.26 0 449.04 71.5 449.04 274.59 0 171.61-111.54 268.85-314.62 268.85zm-626.39-903.82v2079.35h1521.61c406.14 0 675.01-183.05 675.01-537.7 0-263.15-134.43-394.7-288.87-443.34 188.77-60.07 326.07-225.95 326.07-469.07 0-380.41-263.16-629.24-669.3-629.24zM11170.3 5378.81v306.04h1152.6v-306.04zm-626.4-903.82v2079.35h1856.2V6191.1h-1495.8V4838.23H12403v-363.24zM12771.9 4474.99v2079.35h363.2V4838.23h1398.7v-363.24zM18969.7 5378.96v306h1152.5v-306zm-626.3-903.7v2079.08h1856v-363.2h-1495.7V4838.46h1498.6v-363.2zM21717.9 4838.46c374.6 0 649.2 288.84 649.2 680.63s-274.6 672.05-649.2 672.05h-843.6V4838.46Zm-1204-363.2v2079.08h1204c586.3 0 1012.4-414.67 1012.4-1018.09s-426.1-1060.99-1012.4-1060.99zM23047.7 4475.26v2079.08h363.1V4475.26zM24457.5 4475.26v1715.88h-789.3v363.2H25610v-363.2h-789.3V4475.26zM25850.2 4475.26v363.2h1558.6c194.4 0 303.1 108.67 303.1 271.68 0 177.31-108.7 268.82-303.1 268.82h-955.2c-391.8 0-634.9 248.8-634.9 591.98 0 334.6 225.9 583.4 640.6 583.4h1492.8v-363.2h-1492.8c-165.9 0-263.1-97.23-263.1-254.52s100.1-251.66 260.2-251.66h952.4c420.3 0 646.3-197.33 646.3-600.56 0-348.9-211.7-609.14-646.3-609.14z" style="fill:#232221;fill-opacity:1;fill-rule:nonzero;stroke:none" transform="matrix(.13333 0 0 -.13333 0 1600)"/></svg>