<svg xmlns="http://www.w3.org/2000/svg" xmlns:xlink="http://www.w3.org/1999/xlink" width="147.796" height="64.5" viewBox="0 0 147.796 64.5">
  <defs>
    <linearGradient id="linear-gradient" x1="-0.104" y1="0.302" x2="0.914" y2="0.636" gradientUnits="objectBoundingBox">
      <stop offset="0" stop-color="#0ff7a4"/>
      <stop offset="0.523" stop-color="#07f3d0"/>
      <stop offset="1" stop-color="#00f0fc"/>
    </linearGradient>
  </defs>
  <g id="Group_190" data-name="Group 190" transform="translate(-78.818 -92.567)">
    <g id="Group_189" data-name="Group 189" transform="translate(117.289 119.315)">
      <path id="Path_203" data-name="Path 203" d="M241.228,212.484l-5-5.485h-7.386v-3.041h8.228c2.471,0,3.774-1.412,3.774-3.965s-1.412-3.8-3.774-3.8H226.32v16.293H222.9V192.742h14.175c4.508,0,7.169,2.8,7.169,7.2,0,3.258-1.521,5.567-4.073,6.544l5.947,6Z" transform="translate(-222.898 -192.742)" fill="#fff"/>
      <path id="Path_204" data-name="Path 204" d="M318.6,212.484V192.742h17.624v3.449h-14.2v12.845h14.229v3.449Zm5.947-8.581V201h10.944V203.9Z" transform="translate(-293.044 -192.742)" fill="#fff"/>
      <path id="Path_205" data-name="Path 205" d="M397.719,212.484V192.742h14.447c3.856,0,6.409,1.738,6.409,5.1,0,2.5-1.276,3.747-2.742,4.209a4.433,4.433,0,0,1,3.1,4.454c0,3.612-2.5,5.974-6.355,5.974Zm5.947-8.581V201h8.527c1.955,0,2.879-.679,2.879-2.39,0-2.091-1.657-2.417-4.209-2.417h-9.694v12.872h9.993c2.471,0,4.263-.679,4.263-2.607,0-1.629-1.059-2.553-2.987-2.553Z" transform="translate(-351.04 -192.742)" fill="#fff"/>
      <path id="Path_206" data-name="Path 206" d="M490.468,212.484V192.742h17.624v3.449h-14.2v12.845h14.23v3.449Zm5.947-8.581V201h10.944V203.9Z" transform="translate(-419.024 -192.742)" fill="#fff"/>
      <path id="Path_207" data-name="Path 207" d="M569.692,212.484V192.742h3.449v16.293H586.42v3.449Z" transform="translate(-477.094 -192.742)" fill="#fff"/>
    </g>
    <path id="Path_208" data-name="Path 208" d="M109.574,119.321H96.349l4.787-26.754L78.818,130.312H92.043l-4.787,26.755Zm-13.194,2.833h8.23l-11.8,19.956Zm-4.369,5.325H83.784l11.8-19.956Z" fill="url(#linear-gradient)"/>
  </g>
</svg>
