<?xml version="1.0" encoding="UTF-8"?><svg id="Layer_2" xmlns="http://www.w3.org/2000/svg" viewBox="0 0 103.64 85.24"><defs><style>.cls-1{fill:#fff;}.cls-1,.cls-2{stroke:#0ff7a4;stroke-linecap:round;stroke-linejoin:round;stroke-width:2.42px;}.cls-2{fill:none;}</style></defs><g id="Layer_1-2"><g><polygon class="cls-1" points="50.88 55.26 55.56 64.73 66.01 66.25 58.44 73.62 60.23 84.03 50.88 79.12 41.53 84.03 43.32 73.62 35.76 66.25 46.21 64.73 50.88 55.26"/><polygon class="cls-1" points="20.63 63.67 23.88 70.25 31.14 71.3 25.89 76.42 27.13 83.65 20.63 80.24 14.14 83.65 15.38 76.42 10.13 71.3 17.39 70.25 20.63 63.67"/><polygon class="cls-1" points="82.27 63.67 85.52 70.25 92.77 71.3 87.52 76.42 88.76 83.65 82.27 80.24 75.78 83.65 77.02 76.42 71.76 71.3 79.02 70.25 82.27 63.67"/><circle class="cls-2" cx="85.53" cy="17.66" r="10.36"/><path class="cls-2" d="M68.63,45.83c0-9.33,7.57-16.9,16.9-16.9s16.9,7.57,16.9,16.9"/><circle class="cls-2" cx="18.11" cy="17.66" r="10.36"/><path class="cls-2" d="M1.21,45.83c0-9.33,7.57-16.9,16.9-16.9s16.9,7.57,16.9,16.9"/><circle class="cls-2" cx="52.62" cy="14.85" r="13.64"/><path class="cls-1" d="M30.39,51.92c0-12.28,9.96-22.24,22.24-22.24s22.24,9.96,22.24,22.24"/></g></g></svg>