<?xml version="1.0" encoding="UTF-8"?><svg id="Layer_2" xmlns="http://www.w3.org/2000/svg" viewBox="0 0 95.83 95.8"><defs><style>.cls-1{fill:#fff;}.cls-2{fill:#0ff7a4;}</style></defs><g id="Layer_1-2"><g><g><path class="cls-2" d="M0,50.81C0,37.47,0,24.13,0,10.79c0-2.87,1.93-4.77,4.82-4.77,26.65,0,53.31,.03,79.96-.03,2.96,0,5.05,2.25,5.05,5.08-.06,26.68-.03,53.37-.04,80.05,0,2.71-1.93,4.68-4.63,4.68-26.84,0-53.68,0-80.52,0-2.69,0-4.64-1.98-4.64-4.67C0,77.69,0,64.25,0,50.81Z"/><path class="cls-1" d="M44.91,8.94c-13.59,0-27.18,.01-40.78-.03-.92,0-1.17,.25-1.17,1.47,.03,26.52,.02,53.05,.03,79.57,0,2.37,.39,2.86,2.23,2.86,26.37,0,52.75,0,79.12,0,2.16,0,2.45-.38,2.45-3.17,0-26.48,0-52.97,.02-79.45,0-1.11-.25-1.27-1.04-1.27-13.62,.03-27.25,.02-40.87,.02Z"/></g><g><path class="cls-1" d="M50.92,20.98c-13.59,0-27.18,.01-40.78-.02-.92,0-1.17,.19-1.17,1.15,.03,20.82,.02,41.65,.03,62.47,0,1.86,.39,2.25,2.23,2.25,26.37,0,52.75,0,79.12,0,2.16,0,2.45-.3,2.45-2.49,0-20.79,0-41.59,.02-62.38,0-.87-.25-1-1.04-1-13.62,.02-27.25,.02-40.87,.02Z"/><path class="cls-1" d="M50.9,17.99h0c13.62,0,27.24,0,40.86,.02,.78,0,1.07-.13,1.05-1-.05-3.99-.02-7.98-.02-11.97,0-1.56-.45-2.02-1.98-2.02-26.62,0-53.24,0-79.86,0-1.49,0-1.97,.47-1.97,1.94,0,3.99,.02,7.98-.02,11.97,0,.83,.19,1.08,1.07,1.08,13.62-.03,27.24-.02,40.86-.02Z"/><g><path class="cls-2" d="M6,44.83c0-13.34,0-26.68,0-40.03,0-2.87,1.93-4.77,4.82-4.77C37.47,.03,64.12,.06,90.78,0c2.96,0,5.05,2.25,5.05,5.08-.06,26.68-.03,53.37-.04,80.05,0,2.71-1.93,4.68-4.63,4.68-26.84,0-53.68,0-80.52,0-2.69,0-4.64-1.98-4.64-4.67,0-13.44,0-26.87,0-40.31ZM50.92,20.98c-13.59,0-27.18,.01-40.78-.02-.92,0-1.17,.19-1.17,1.15,.03,20.82,.02,41.65,.03,62.47,0,1.86,.39,2.25,2.23,2.25,26.37,0,52.75,0,79.12,0,2.16,0,2.45-.3,2.45-2.49,0-20.79,0-41.59,.02-62.38,0-.87-.25-1-1.04-1-13.62,.02-27.25,.02-40.87,.02Zm-.01-2.99h0c13.62,0,27.24,0,40.86,.02,.78,0,1.07-.13,1.05-1-.05-3.99-.02-7.98-.02-11.97,0-1.56-.45-2.02-1.98-2.02-26.62,0-53.24,0-79.86,0-1.49,0-1.97,.47-1.97,1.94,0,3.99,.02,7.98-.02,11.97,0,.83,.19,1.08,1.07,1.08,13.62-.03,27.24-.02,40.86-.02Z"/><path class="cls-2" d="M50.96,26.97c11.25,0,22.5,0,33.75,0,1.66,0,2.09,.44,2.09,2.1,0,12.56,0,25.12,0,37.68,0,1.66-.45,2.12-2.08,2.12-22.53,0-45.07,0-67.6,0-1.73,0-2.14-.42-2.14-2.15,0-12.56,0-25.12,0-37.68,0-1.58,.48-2.06,2.04-2.06,11.31,0,22.63,0,33.94,0Zm-.05,2.99h0c-10.66,0-21.32,0-31.98,0-.53,0-.99-.1-.99,.76,.03,11.38,.03,22.75,0,34.13,0,.89,.28,1.05,1.1,1.05,21.26-.02,42.52-.02,63.77,0,.83,0,1.02-.21,1.02-1.03-.03-11.35-.03-22.69,0-34.04,0-.79-.27-.89-.95-.89-10.66,.02-21.32,.01-31.98,.01Z"/><path class="cls-2" d="M61.36,77.84c-7.88,0-15.76,0-23.64,0-1.08,0-1.68-.43-1.78-1.24-.11-.88,.43-1.6,1.31-1.73,.18-.03,.37-.01,.56-.01,15.73,0,31.46,0,47.19,0,1.27,0,1.86,.52,1.81,1.58-.03,.81-.49,1.26-1.25,1.39-.33,.06-.68,.02-1.03,.02-7.73,0-15.45,0-23.18,0h0Z"/><path class="cls-2" d="M22.94,74.86c2.02,0,4.05-.03,6.07,.01,.69,.01,1.09-.11,.94-.9-.02-.12,0-.25,0-.37,.02-1.1,.57-1.74,1.51-1.73,.92,0,1.47,.66,1.48,1.76,0,1.84,0,3.68,0,5.51,0,1.11-.55,1.7-1.53,1.69-.92,0-1.44-.6-1.46-1.66,0-.16-.02-.32,0-.47,.12-.69-.13-.89-.85-.88-4.14,.04-8.29,0-12.43,.02-.84,0-1.48-.27-1.69-1.13-.26-1.07,.42-1.85,1.6-1.85,2.12-.01,4.24,0,6.36,0Z"/><path class="cls-2" d="M73.35,14.99c-4.8,0-9.6,0-14.4,0-1.58,0-2.07-.49-2.07-2.06,0-1.68,0-3.37,0-5.05,0-1.26,.57-1.86,1.8-1.86,9.78,0,19.57,0,29.35,0,1.21,0,1.76,.56,1.77,1.77,0,1.81,0,3.61,0,5.42,0,1.2-.57,1.77-1.78,1.77-4.89,0-9.78,0-14.68,0Zm0-5.97h0c-3.83,0-7.66,0-11.5,0-1.99,0-1.95,0-1.99,1.98-.02,.8,.17,1.04,1.02,1.04,7.94-.04,15.89-.02,23.83-.02,2.12,0,2.09,0,2.13-2.14,.01-.7-.17-.88-.87-.87-4.21,.04-8.41,.02-12.62,.02Z"/><path class="cls-2" d="M20.97,10.5c0,2.46-2.06,4.5-4.53,4.49-2.4-.01-4.43-2.06-4.45-4.49-.02-2.39,2.05-4.47,4.44-4.48,2.47,0,4.53,2.03,4.53,4.48Zm-2.99,.02c.01-.81-.64-1.48-1.45-1.51-.81-.03-1.49,.62-1.53,1.43-.04,.83,.66,1.57,1.5,1.56,.81,0,1.48-.67,1.49-1.49Z"/><path class="cls-2" d="M28.46,14.98c-2.44,0-4.49-2.06-4.49-4.53,0-2.39,2.08-4.44,4.48-4.43,2.42,0,4.48,2.04,4.49,4.43,.02,2.47-2.02,4.53-4.48,4.53Zm0-2.98c.8,0,1.47-.69,1.49-1.5,.01-.79-.66-1.48-1.47-1.5-.84-.02-1.55,.69-1.52,1.53,.02,.81,.7,1.47,1.51,1.46Z"/><path class="cls-2" d="M44.91,10.54c-.01,2.4-2.06,4.44-4.48,4.44-2.45,0-4.49-2.06-4.5-4.53,0-2.38,2.08-4.44,4.48-4.43,2.46,0,4.51,2.07,4.5,4.52Zm-2.99-.01c.02-.8-.64-1.49-1.45-1.52-.81-.03-1.5,.61-1.55,1.42-.05,.84,.65,1.57,1.49,1.57,.8,0,1.48-.66,1.5-1.48Z"/><path class="cls-2" d="M43.42,47.93c0-2.4,0-4.79,0-7.19,0-.71,.2-1.27,.85-1.63,.64-.35,1.18-.12,1.74,.23,3.73,2.35,7.48,4.69,11.21,7.04,1.55,.98,1.58,2.07,.04,3.04-3.74,2.35-7.48,4.68-11.22,7.03-.58,.36-1.15,.64-1.82,.24-.67-.4-.81-1.02-.8-1.76,.02-2.33,0-4.67,0-7Zm3.04-4.79v9.54c2.19-1.36,4.27-2.66,6.34-3.96,1.24-.78,1.25-.81,.06-1.57-2.09-1.33-4.19-2.63-6.4-4.01Z"/></g></g></g></g></svg>