<?xml version="1.0" encoding="UTF-8"?><svg id="Layer_2" xmlns="http://www.w3.org/2000/svg" viewBox="0 0 89.17 89.5"><defs><style>.cls-1{fill:#0ff7a4;}</style></defs><g id="Layer_1-2"><g><path class="cls-1" d="M34,0c1.38,.28,2.32,1.21,3.27,2.17,4.62,4.65,9.28,9.28,13.9,13.93,.4,.4,.73,.5,1.28,.36,9.08-2.21,17.48-.66,24.97,4.93,6.08,4.53,9.82,10.63,11.25,18.11,2.68,14.07-5.42,27.95-18.66,32.85-4.42,1.64-8.97,2.13-13.65,1.59-.81-.09-1.62-.19-2.41-.4-.59-.15-.74,.05-.74,.63,.02,3.53,0,7.06,0,10.59,0,2.99-1.71,4.72-4.7,4.72-9.95,0-19.9,0-29.85,0-2.66,0-4.45-1.77-4.45-4.42,0-15.58,0-31.17,.02-46.75,0-.84-.18-1.07-1.04-1.06-3.09,.06-6.19,.02-9.28,.02-1.63,0-2.9-.62-3.59-2.14-.65-1.44-.3-2.84,.98-4.12C11.12,21.2,20.94,11.39,30.74,1.55c.74-.74,1.58-1.23,2.55-1.55h.7ZM17.01,61.13c0,2.01,0,4.03,0,6.04,0,5.87,0,11.73,0,17.6,0,1.44,.5,1.92,1.95,1.92,.61,0,1.23,0,1.84,0,9.25,0,18.5,0,27.76,0,1.24,0,1.78-.42,1.78-1.52,.02-4,0-8,0-11.99,0-.47-.2-.66-.6-.81-3.64-1.32-6.91-3.26-9.71-5.92-7.93-7.55-11.06-16.81-8.91-27.51,1.97-9.77,7.84-16.72,16.89-20.94,.63-.29,.65-.46,.18-.93-4.57-4.55-9.14-9.11-13.68-13.68-.59-.59-1.05-.58-1.62,0C23.08,13.21,13.26,23.03,3.45,32.85c-.32,.32-.8,.62-.55,1.17,.23,.51,.76,.46,1.23,.46,3.27,0,6.54,0,9.81,.01,1.99,0,3.07,1.11,3.07,3.09,0,7.85,0,15.7,0,23.55Zm42.8,10.2c14.25,.12,26.65-11.51,26.54-26.72-.1-14.56-11.95-26.28-26.55-26.3-14.69-.01-26.59,11.95-26.49,26.79,.1,14.74,12.2,26.3,26.49,26.23Z"/><path class="cls-1" d="M59.8,66.78c-12.16-.03-21.98-9.9-21.93-22.04,.05-12.07,9.87-21.84,21.96-21.85,12.22,0,22.02,9.88,21.98,22.18-.04,11.94-9.98,21.74-22.01,21.71Zm-.03-2.84c10.55,.06,19.21-8.45,19.22-19.02,.01-10.9-8.85-19.21-19.11-19.24-10.19-.02-19.09,8.09-19.2,18.96-.12,11.1,8.95,19.4,19.09,19.3Z"/><path class="cls-1" d="M59.39,46.23c-2.15,.18-4.15-.51-5.57-2.52-2.57-3.64-.75-9.06,3.46-10.13,.84-.21,1.22-.4,1.15-1.35-.07-.94,.61-1.57,1.4-1.57,.79,0,1.41,.62,1.4,1.58-.01,.8,.09,1.15,1.05,1.32,2.62,.46,4.48,2.81,4.59,5.45,.04,.9-.45,1.55-1.22,1.64-.88,.1-1.42-.36-1.59-1.34-.42-2.4-1.23-3.08-3.7-3.07-.61,0-1.23,0-1.84,0-1.46,.03-2.6,1.02-2.84,2.46-.14,.84-.11,1.69,.05,2.53,.25,1.26,1.48,2.17,2.9,2.21,1.16,.03,2.34-.14,3.49,.1,2.69,.56,4.35,2.43,4.73,5.25,.42,3.15-.79,5.69-3.3,6.91-.55,.27-1.13,.5-1.74,.5-.5,0-.6,.21-.55,.64,.03,.23,.02,.47,0,.7-.1,.89-.67,1.48-1.43,1.47-.76,0-1.44-.61-1.39-1.49,.06-.97-.24-1.27-1.2-1.48-2.56-.55-4.27-2.69-4.44-5.28-.06-.85,.53-1.59,1.33-1.68,.7-.08,1.38,.46,1.45,1.32,.15,1.88,1.42,3.24,3.69,3.05,.64-.05,1.28,0,1.93-.02,1.5-.03,2.65-1.09,2.82-2.58,.05-.43,.06-.87,.05-1.31-.04-2.2-1.17-3.31-3.38-3.31-.35,0-.7,0-1.27,0Z"/></g></g></svg>