<svg xmlns="http://www.w3.org/2000/svg" width="146.983" height="64.145" viewBox="0 0 146.983 64.145">
  <g id="Group_86" data-name="Group 86" transform="translate(-79.418 -92.567)">
    <g id="Group_85" data-name="Group 85" transform="translate(117.677 119.168)">
      <path id="Path_114" data-name="Path 114" d="M241.728,212.375l-4.969-5.455h-7.345V203.9H237.6c2.458,0,3.754-1.4,3.754-3.943s-1.4-3.781-3.754-3.781H226.9v16.2h-3.4V192.742h14.1c4.483,0,7.13,2.782,7.13,7.157,0,3.24-1.513,5.536-4.051,6.508l5.914,5.968Z" transform="translate(-223.499 -192.742)" fill="#262626"/>
      <path id="Path_115" data-name="Path 115" d="M319.2,212.375V192.742h17.527v3.43H322.6v12.774h14.151v3.43Zm5.914-8.534v-2.89h10.883v2.89Z" transform="translate(-293.785 -192.742)" fill="#262626"/>
      <path id="Path_116" data-name="Path 116" d="M398.319,212.375V192.742h14.367c3.835,0,6.373,1.728,6.373,5.077,0,2.485-1.269,3.727-2.727,4.186a4.408,4.408,0,0,1,3.079,4.429c0,3.592-2.485,5.941-6.32,5.941Zm5.914-8.534v-2.89h8.48c1.945,0,2.863-.675,2.863-2.377,0-2.079-1.647-2.4-4.186-2.4h-9.641v12.8h9.938c2.458,0,4.24-.675,4.24-2.593,0-1.62-1.053-2.539-2.971-2.539Z" transform="translate(-351.897 -192.742)" fill="#262626"/>
      <path id="Path_117" data-name="Path 117" d="M491.069,212.375V192.742H508.6v3.43H494.472v12.774h14.151v3.43Zm5.914-8.534v-2.89h10.883v2.89Z" transform="translate(-420.018 -192.742)" fill="#262626"/>
      <path id="Path_118" data-name="Path 118" d="M570.293,212.375V192.742h3.43v16.2h13.206v3.43Z" transform="translate(-478.205 -192.742)" fill="#262626"/>
    </g>
    <path id="Path_119" data-name="Path 119" d="M110,119.174H96.852l4.761-26.607L79.418,130.1H92.57L87.81,156.712Zm-13.121,2.817h8.185L93.334,141.838Zm-4.345,5.3H84.357l11.732-19.846Z" fill="#262626"/>
  </g>
</svg>
