<?xml version="1.0" encoding="UTF-8"?><svg id="Layer_2" xmlns="http://www.w3.org/2000/svg" xmlns:xlink="http://www.w3.org/1999/xlink" viewBox="0 0 553.52 241.56"><defs><style>.cls-1{fill:url(#linear-gradient);}.cls-2{fill:#262626;}</style><linearGradient id="linear-gradient" x1="-11.98" y1="72.84" x2="105.23" y2="153.6" gradientUnits="userSpaceOnUse"><stop offset="0" stop-color="#0ff7a4"/><stop offset=".52" stop-color="#07f3d0"/><stop offset="1" stop-color="#00f0fc"/></linearGradient></defs><g id="Capa_2"><g><g><path class="cls-2" d="M212.73,174.11l-18.71-20.54h-27.66v-11.39h30.82c9.26,0,14.14-5.29,14.14-14.85s-5.29-14.24-14.14-14.24h-40.27v61.02h-12.81V100.18h53.09c16.88,0,26.85,10.48,26.85,26.95,0,12.2-5.7,20.85-15.26,24.51l22.27,22.48h-18.31Z"/><path class="cls-2" d="M239.78,174.11V100.18h66v12.92h-53.19v48.11h53.29v12.92h-66.11Zm22.27-32.14v-10.88h40.99v10.88h-40.99Z"/><path class="cls-2" d="M318.9,174.11V100.18h54.11c14.44,0,24,6.51,24,19.12,0,9.36-4.78,14.03-10.27,15.76,6.71,2.14,11.59,8.03,11.59,16.68,0,13.53-9.36,22.37-23.8,22.37h-55.63Zm22.27-32.14v-10.88h31.93c7.32,0,10.78-2.54,10.78-8.95,0-7.83-6.2-9.05-15.76-9.05h-36.31v48.21h37.43c9.25,0,15.97-2.54,15.97-9.76,0-6.1-3.97-9.56-11.19-9.56h-32.85Z"/><path class="cls-2" d="M411.65,174.11V100.18h66v12.92h-53.19v48.11h53.29v12.92h-66.11Zm22.27-32.14v-10.88h40.99v10.88h-40.99Z"/><path class="cls-2" d="M490.87,174.11V100.18h12.92v61.02h49.73v12.92h-62.65Z"/></g><path class="cls-1" d="M115.19,100.2h-49.53L83.58,0,0,141.36H49.53l-17.93,100.2L115.19,100.2Zm-49.41,10.61h30.82l-44.19,74.74,13.37-74.74Zm-16.36,19.94H18.6L62.78,56.02l-13.37,74.74Z"/></g></g></svg>