<?xml version="1.0" encoding="UTF-8"?><svg id="Layer_2" xmlns="http://www.w3.org/2000/svg" viewBox="0 0 95.18 90.31"><defs><style>.cls-1{fill:#fff;}.cls-2{fill:#0ff7a4;}</style></defs><g id="Layer_1-2"><g><g><path class="cls-2" d="M47.55,69.93c-13.28,0-26.56,0-39.83,0-3.66,0-6.45-2.12-7.43-5.61-.23-.8-.26-1.64-.26-2.47C.01,43.85,.01,25.86,0,7.86,0,2.63,4.19,0,7.84,0c26.56,.06,53.11,.03,79.67,.04,3.61,0,6.4,2.12,7.37,5.55,.23,.8,.29,1.63,.29,2.46,0,17.96-.01,35.92,.02,53.87,0,5.34-4.13,8.09-8.11,8.05-13.17-.12-26.35-.04-39.52-.04Zm-.07-2.94h0c13.1,0,26.21-.04,39.31,.04,3.02,.02,5.41-1.66,5.39-5.33-.09-17.85-.08-35.7,0-53.55,.01-3.33-2.16-5.19-5.22-5.18-17.82,.04-35.63,.02-53.45,.02-8.53,0-17.05,0-25.58,0-2.86,0-4.86,1.79-4.86,4.41-.01,18.37,0,36.74,0,55.11,0,.41,.02,.82,.15,1.23,.65,2.08,2.32,3.25,4.76,3.25,13.17,0,26.34,0,39.51,0Z"/><path class="cls-2" d="M67.95,35.02c0,11.12-9.27,20.34-20.42,20.31-11.09-.03-20.29-9.23-20.31-20.3-.01-11.17,9.27-20.51,20.4-20.39,11.49,.12,20.2,9.26,20.32,20.38Zm-3.04,0c.09-9.79-8.03-17.39-17.3-17.36-9.6,.03-17.33,7.69-17.34,17.33,0,9.57,7.65,17.25,17.26,17.29,9.63,.04,17.37-7.64,17.38-17.27Z"/><path class="cls-2" d="M42.24,34.99c0-2.46,0-4.92,0-7.38,0-.31-.02-.63,.03-.93,.21-1.35,1.33-1.88,2.44-1.1,3.79,2.67,7.57,5.36,11.34,8.06,1.07,.77,1.07,1.91,0,2.67-3.76,2.71-7.56,5.38-11.34,8.06-.51,.36-1.03,.52-1.64,.18-.68-.37-.84-.99-.84-1.67-.01-2.63,0-5.27,0-7.9h0Zm3.08,5.3c1.84-1.3,3.53-2.48,5.21-3.68,.7-.5,1.92-1.01,1.95-1.56,.04-.81-1.22-1.13-1.92-1.66-1.67-1.25-3.4-2.43-5.24-3.73v10.63Z"/></g><rect class="cls-2" x="6.29" y="81.33" width="82.55" height="2.82" rx="1.41" ry="1.41"/><rect class="cls-2" x="19.45" y="75.3" width="10.82" height="15.01" rx="5.41" ry="5.41"/><path class="cls-1" d="M24.86,87.31c-1.33,0-2.41-1.08-2.41-2.41v-4.2c0-1.33,1.08-2.41,2.41-2.41s2.41,1.08,2.41,2.41v4.2c0,1.33-1.08,2.41-2.41,2.41Z"/></g></g></svg>